<svg id="图层_1" data-name="图层 1" xmlns="http://www.w3.org/2000/svg" viewBox="0 0 317.17 222.46"><defs><style>.cls-1{fill:#170705;}.cls-1,.cls-2{fill-rule:evenodd;}.cls-2{fill:#fff;}</style></defs><title>2</title><polygon class="cls-1" points="81.01 127.47 49.04 193.52 72.74 199.02 164.78 175.86 167.53 183.54 172.15 190.35 188.25 199.79 197.46 215.86 214.5 222.46 243.3 218.64 277.37 195.16 295.31 178.55 299.76 144.06 270.74 131.7 306.08 123.25 317.17 79.11 304.55 69.22 252.14 79.45 298.38 3.43 270.79 0 73.13 53.26 80.45 59.56 27.1 68.37 0 117.5 28.94 133.28 81.01 127.47"/><path class="cls-2" d="M-833.81,1163.87h0c.43,0,1-.19,1.68-.19-.63,0-1.25.19-1.68.19Z" transform="translate(1017.24 -1004.17)"/><polygon class="cls-2" points="193.47 162.62 193.47 162.62 193.04 162.62 193.47 162.62"/><path class="cls-2" d="M-889.76,1113.36h0c5-.85,9.83-1.9,14.62-2.72,1.88-.28,4.26-.62,4.4,1.87.62,7.12,1.44,14.4,2.07,21.52,4.59-7.94,9.41-15.68,14-23.62.4-.71.74-1.81-.2-2.29H-857a3,3,0,0,0,.43-1c4.79-.85,9.58-1.9,14.4-2.72,1.76-.23,3.88-.6,4,1.87.62,9.41,1.25,18.59,1.67,27.78a3.69,3.69,0,0,0,1,2.72,5.44,5.44,0,0,0,3,.62v.2a1.43,1.43,0,0,0-.43.82c-3.77.62-7.2,1.39-10.85,2.1-1.9.42-4.57.76-4.59-1.87-.43-7.51-.63-15.25-.86-23-5.61,9.58-11,19.41-16.69,29.22-2.92.4-5.84,1-8.56,1.68a5.23,5.23,0,0,1-2.5,0,1,1,0,0,1-.62-1l-3.15-23.81c-1.19,2.52-11.22,23.81-11.51,24.91-.76,1.93,1.51,2,2.95,1.62a2.9,2.9,0,0,1-.42,1.24c-3.55.63-7.29,1.25-11.06,2.07-1.95.4-4.56.23-3.12-2.49,1.82-3.43,17-32.54,17.13-33.39a1.15,1.15,0,0,0-.91-1.25,11.87,11.87,0,0,0-2.44,0,3,3,0,0,0,.4-1Z" transform="translate(1017.24 -1004.17)"/><path class="cls-2" d="M-818.36,1122.94c-1.81,1.59-3.54,6.32-.62,6.89,2,.34,6.94-.68,9.18-1.25a19.14,19.14,0,0,0,2.3-.62c1-3.12,2.3-6.26,3.34-9.38-3.94.65-11.39,1.58-14.2,4.36Zm6.07,11.09a1.24,1.24,0,0,1-.63.39c-4.19,1.42-12.81,3.46-16.69,1.9-2.47-.91-3.09-3.06-2.92-6.06.71-10.15,12-13.19,20.24-14.6,3.09-.63,6.18-.85,9.47-2,.79-.31,1.13-1.78,1.16-3.23s-2.16-.82-3.32-.65c-4.82.91-13.69,2.72-15,2.52-1.82-.59-.85-3.54-.43-4.82,7.12-1.27,14.2-2.6,21.29-4,3.35-.63,5.84-.83,7.51-.2a3.37,3.37,0,0,1,2.72,3.11,13,13,0,0,1-.62,2.73c-2.1,5.86-4.22,11.93-6.09,18-.2.59-.83,2.38,0,2.46a6.75,6.75,0,0,0,2.1.2,3,3,0,0,1-.42,1.05c-3.35.62-6.89,1.25-10.43,2.1-1,.14-4.17.62-4.17-1a9.83,9.83,0,0,1,.62-2.3l-4.39,4.4Z" transform="translate(1017.24 -1004.17)"/><polygon class="cls-2" points="184.71 133.2 184.71 133.2 184.71 133.4 184.71 133.2"/><path class="cls-2" d="M-941.52,1076.82h0l13.15-2.52c1.76-.2,3.37,0,2.72,2.52-1.05,3.12-2.1,6-3.15,9.19,5.84-5.33,16.53-9.07,24.24-7.51,2.13.42,3.86,1.19,3.12,3.54q-3.45,10.64-6.89,21.29c-.34,1.1-1,2.69.43,2.92a5.83,5.83,0,0,0,2.49-.2c-.17.45-.28.82-.42,1.25-4.17.62-8.14,1.44-12.11,2.09a14.18,14.18,0,0,1-2.69.23c-.77,0-1.28-.71-.85-2.13,2.1-6.46,4.19-12.87,6.46-19.61.51-1.5.23-2.18-1.44-2.5-3.09-.62-8.17,1-10.86,2.5a7.19,7.19,0,0,0-3.15,3.54c-.76,2.3-5.87,17-6,18.17-.65,1.9,1.19,2.07,3.12,1.67-.2.46-.31.83-.42,1-4.17.82-8.14,1.68-12.31,2.3-2.38.42-3.77.23-3.34-2.1,3.34-10.66,6.89-21.51,10.43-32.37.8-2.55-1-2.3-2.92-2.3a4.2,4.2,0,0,1,.43-1Z" transform="translate(1017.24 -1004.17)"/><path class="cls-2" d="M-879.73,1076.2c-2.92,7.91-5.64,16.07-8.13,24-1,2.8,1.22,2.32,3.11,2.07a10.09,10.09,0,0,1-.62,1c-4.17.85-8.13,1.67-12.3,2.29-1.93.34-3.83.17-3.15-1.87,2.72-8.16,5.44-16.3,8.14-24.63.62-2.1.37-2.3-2.7-2.3.2-.42.4-.62.4-1,4.23-.79,8.42-1.47,13-2.29,2.09-.48,3,.65,2.29,2.72Zm-7.08-4a16.89,16.89,0,0,1-2.05.28c-1.07,0-1.92-.51-1.72-1.33.28-1.16,1-3,1.47-4.39,3.15-.48,6.26-1,9.38-1.67,1.67-.32,3.49-.37,2.72,1.67-.42,1.25-.85,2.49-1.24,3.77-2.5.62-5.7,1.19-8.56,1.67Z" transform="translate(1017.24 -1004.17)"/><path class="cls-2" d="M-969.3,1081.81c6.26-1.25,12.53-2.29,18.79-3.31-.42,1.24-.82,2.69-1.25,4-.48,2-2.35,2.61-4.16,2.92-4.45.77-18.66,1.76-17.75,8.14,0,.42.4.82,1,1.25,2.81.93,10,1.27,13.16,1.47a13.18,13.18,0,0,1,5.86,1.64,5.78,5.78,0,0,1,2.07,4,12.92,12.92,0,0,1-5,11.09c-4.45,3.74-36,13.38-37.39,8.56a1.88,1.88,0,0,1,0-.85c.57-1.79,1.05-3.41,1.68-5.22.45,0,1-.17,1.47-.2.68,1.36,3.32,1.22,6.58.85,6.35-.71,15.11-3.34,17-5,.85-.71,2.57-2.07,3.14-3.46a2.78,2.78,0,0,0-1.27-3.43c-2-1-11.91-1.34-14.6-1.48a9.17,9.17,0,0,1-4.82-1.47,4.22,4.22,0,0,1-1.67-3.54c.45-10.58,7.51-14.09,17.12-15.88Z" transform="translate(1017.24 -1004.17)"/><path class="cls-2" d="M-879.53,1075.35h0v0Z" transform="translate(1017.24 -1004.17)"/><path class="cls-2" d="M-879.3,1099.36c2.49-7.94,5.21-16.07,7.93-24.21.32-.91.43-2-.42-2.1a11,11,0,0,0-2.3,0c.2-.42.43-.82.63-1.24,4-.68,8.13-1.42,12.33-2.1,1.1-.17,3.12-.57,3.12.85a13.86,13.86,0,0,1-.83,2.69,31,31,0,0,1,6.66-4.59,34,34,0,0,1,7.94-2.5c3.77-.62,6.69-.82,8.76-.42,2.69.48,3.91,1.36,3.15,3.77-2.5,7.31-5,14.6-7.51,21.71-.4,1.25-.46,1.68.62,2.07a3.85,3.85,0,0,0,2.3,0,1.61,1.61,0,0,1-.2,1c-4,.85-7.94,1.47-11.91,2.3a5.09,5.09,0,0,1-2.29,0,1.43,1.43,0,0,1-.86-2.07c2.1-6.49,4.4-13,6.5-19.42a1.74,1.74,0,0,0-1.28-2.52c-3.37-.82-12.19,1.73-13.55,5.87-1.9,5.83-4,11.87-6.07,17.94-.76,2.32,1,2.24,2.73,1.87a2.13,2.13,0,0,0-.23,1c-4.17.85-8.33,1.67-12.3,2.29-2.3.34-3.89.4-2.92-2.29Z" transform="translate(1017.24 -1004.17)"/><path class="cls-2" d="M-773.88,1072.43c4.19-12.53,8.56-24.83,12.73-37.36-26.08,4.36-52,8.76-78.07,13.15s-52.41,8.76-78.49,12.93c29.42-6.66,58.87-13.55,88.1-20.24s58.45-13.58,87.9-20.47c-5.44,8.76-10.66,17.32-16.1,26.11-5.41,8.56-10.63,17.32-16.07,25.88Z" transform="translate(1017.24 -1004.17)"/><path class="cls-2" d="M-921.28,1138.62c-4.17,12.53-6.47,25.06-10.86,37.36,26.11-4.37,57.74-9.64,84-14a12.32,12.32,0,0,0,1,3.12l.37.68s-8.17,2.29-17.12,4.39c-29.23,6.69-58.68,13.58-88.1,20.24,10.63-17.32,20-34.44,30.67-51.76Z" transform="translate(1017.24 -1004.17)"/><path class="cls-2" d="M-719.57,1089.72c2.72.62,4.17,2.3,4.17,4.79s-1.73,6.92-4.17,8.14a19,19,0,0,1-3.77,1.27c-6.86,1.14-14,2.64-20.89,4a30.56,30.56,0,0,0-1.45,4.79,2.44,2.44,0,0,0,2.07,2.32c4.2.6,13.38-1.67,17.32-3.14,1.9-.82,3-1.42,3.57-2.72.68,0,1-.15,1.68-.2a20.65,20.65,0,0,1-1.48,4.16c-.82,2-3.34,4-5.84,4.82-4.36,1.9-21.23,4.62-25.06,3.75-2.72-.46-4.39-2.16-4.39-5,0-5.19,4.68-15.93,8.16-19.42,5.67-5,23.42-9.1,30.08-7.54Zm-19.45,8.59c2.22-1.81,8.22-3.6,10.89-2.55,2.49.51,1.08,3.43.62,4.82-2.29.39-4.59.82-6.89,1.24-2.72.63-5.44,1.08-8.16,1.71,1-2.3,2.1-4.17,3.54-5.22Z" transform="translate(1017.24 -1004.17)"/><path class="cls-2" d="M-757.19,1100.21c-3.94,1.3-11,1.25-12.5,5-.59,1.73-5,13.83-5,14.43,0,.79-.12,1.56.82,1.87,1.25.62,9.44-1.53,10.43-2.3a5.78,5.78,0,0,0,2.72-2.3,15,15,0,0,1,1.67-.42c-1.05,2.1-1.87,4.17-2.72,6.26a3,3,0,0,1-1.87,1.68c-1.7,1.27-19.76,5.16-22.76,4-1.73-.6-1.76-2.3-1.25-4q3.24-9.74,6.69-19.42a28.82,28.82,0,0,1-4.59.82c.42-1.25,1-2.69,1.44-4,5.53-1.44,10.46-4,13.78-8.76,1.67-.42,3.35-.62,5.25-1-.66,1.9-1.28,3.55-1.9,5.22,4-.71,8.07-1.5,12.1-2.07-.57,1.45-.79,4.25-2.3,5Z" transform="translate(1017.24 -1004.17)"/><path class="cls-2" d="M-815.64,1072.43c5.08-.77,10.18-1.87,15.25-2.72.94-1.87,1.59-4.25-.85-5.22a12.93,12.93,0,0,0-14.4,7.94Zm-1.67,4.59c-1,2-2.72,6.8.85,7.31,5.53.32,12.13-1.16,17.94-3.14a5.19,5.19,0,0,0,3.35-2.69c.42,0,1-.23,1.67-.23a22.11,22.11,0,0,1-1.47,4.39,15.76,15.76,0,0,1-1.67,2.5,14.9,14.9,0,0,1-3.94,2.29c-4.51,1.93-21.94,4.37-26.11,3.77-2.92-.62-4.4-2.29-4.59-5.21a21.67,21.67,0,0,1,1-5c1.3-4.79,3.31-11.85,7.28-15,6.18-5.42,23.19-8.88,30.5-7.32,2.69.63,4.17,2.1,4.37,4.79a15,15,0,0,1-1.87,6.07c-1.37,2.1-3.55,3.09-6.27,3.54Z" transform="translate(1017.24 -1004.17)"/><path class="cls-2" d="M-809.46,1163.17v0Z" transform="translate(1017.24 -1004.17)"/><path class="cls-2" d="M-746.33,1167.64l.23.2a4.28,4.28,0,0,0,3.34,2.1,3.69,3.69,0,0,0,2.07-.62c1.67-1,1.9-3.57.63-5.45-.2-.19-.4-.62-.83-.82-1.61,1-3.88,3.29-5.44,4.59Zm-38.81-27c-10-5.36-29.93-.37-41.24,4.22-2,.82-3.57,1.48-5,2.21-2.44,1.25-4.88,2.38-7.26,3.6.57-.59,3.89-2.52,4.79-3.14,10.49-6.27,21.77-9,33.85-9.81,7.09-.2,10.86.62,14.82,2.72,2.92,1.47,5.84,3.34,10,5.84a4,4,0,0,0,1.47-2.5c0-2.41-4.47-.79-5.64-.19,2.3-1.28,4.6-1.68,5.64-1.28.83.43,1,1.47,0,2.92a6.09,6.09,0,0,1-1,1.28,2.2,2.2,0,0,0,1.21.62c1.25-.23,18.2.2,30.73,2.07a55,55,0,0,1,7.71,1.67c4.4,1,6.69,2.72,4.2,4.59l-.23.23c2.72,1.45,2.1,5.64,2.52,6.66-1.92,1.93-3.79,3.77-5.86,5.7-2.53,2.29-5.64,5.16-8.34,7.45-3.14,2.92-6.49,5.45-9.61,7.94-7.08,2.72-14.2,6.27-21.29,9.61-3.77,1.67-7.73,3.54-11.48,5-.42.2-1,.42-1.47.62-6.46,2.5-4.79-1-7.09-7.74a4.23,4.23,0,0,0-.22-1.64c2.52,4.59,2.29,9.58,7.11,7.28l1.67-.79,11.48-5.24,20.24-9.61,10.66-8.14,7.43-5.87,5.73-4.16c-.43-1,.82-5.42-2.1-6.69-.43.22-.8.59-1.25.85a5.92,5.92,0,0,1,1.05,1.24c1.08,1.48,1,4.17-.62,5.22a4.07,4.07,0,0,1-2.53.62,5,5,0,0,1-2.92-1.87c-.2-.42-.2-.82-.42-1-.82.63-1.67,1.25-2.5,1.9.63.2,1,.82,1.48,1.25,3,5.07-3.32,8.93-6.49,4.17a2.27,2.27,0,0,1-.43-.83c-3.12,2.7-6.24,5.42-9.18,7.72-4.79,1.87-9.39,3.77-14.18,5.44.2.62.4,1,.63,1.64.82,2.72-.37,5.53-3.15,6.27-2.52.85-5.07-1.19-5.84-3.94v-.66c-1.25.43-2.3.85-3.34,1.28a4.84,4.84,0,0,1,1.24,2.3c2.27,8.44-9.8,9.12-9.8.82-10,2.49-14.83-4.4-26.74-12.53-1.87-1.25-4-2.5-6-4a3.67,3.67,0,0,1-1-.62v-1.68c-2.5-1.87-2.72-4.16-3.35-6.46-.42-2.72-1.24-5.64-6.69-8.76a16.45,16.45,0,0,0-4-2.1A4.73,4.73,0,0,0-839,1152a3,3,0,0,1,1.24.42,30.92,30.92,0,0,1,4,2.5c5.25,4,5.45,8.36,6.69,11.9a9.13,9.13,0,0,0,3.35,4.6v-1.68a8.4,8.4,0,0,0,1.44,1,62.91,62.91,0,0,1,5.64,3.77c9,6.47,19.85,14.6,28,10.86l3.57-1.47,11.48-4.4,14.21-5.41-14.21-8.14-7.31-4.39,7.31,3.12,18.15,7.54,12.75-9.19,7.71-5.64,2.72-1.9c-.19-.62-1.24-1.24-2.72-1.87a43.65,43.65,0,0,0-7.71-2.1c-11.08-2.29-27.58-3.74-30.9-4h-.62c-5-3.12-8.16-5.42-10.86-6.89Zm-55.13,11.7c0,.2-.2.43-.42.83a19.58,19.58,0,0,1-2.07,4.19c-1.87,2.81-4.68,2.33-3.58,7.94a19.79,19.79,0,0,1,.63,2.27c0,.05,0,0,0,0-2-3.55-4.45-6.86.65-9.39,2.58-1.56,3.26-3.37,4.79-5.84Zm6.46,17.13a9.49,9.49,0,0,0,5-2.1l.23-.63a8.69,8.69,0,0,1-5.25,1.68c-4.36,0-6.88-3.12,0-4.6h0c-9.8,1.68-5.21,5.84,0,5.65Zm48.67-15c4.79-2.52,7.52-4.62,8.34-6.49,0,2.1-1.87,5-8.34,8.36-5.86,2.92-15.44,6-31.55,9.19-2.29.42-4.59.82-7.08,1.24,2.49-.62,4.79-1.24,7.08-1.67,3.94-1,7.2-1.93,7.23-1.95s3-9.87,2.21-18.23a70,70,0,0,0-9.44,3.29c-3.31,1.64-5.83,3.31-7.08,5.41a5.59,5.59,0,0,0-1.05,4,7.26,7.26,0,0,1,1.05-6.26c1.25-1.88,3.77-3.35,7.08-4.6,5.22-2.09,13-3.77,22.77-5.41,1.24-.23,2.52-.65,4-.85a29.26,29.26,0,0,1-4.17,1c-2.52.62-4.14,1-6.46,1.61h0v.26a58.4,58.4,0,0,1-2.24,17.83l-1.22.37a48.35,48.35,0,0,0,2.18-18.12c-1.33.34-1.81.46-2,.54s0,.09,0,.2c-.06,6.55-.31,12.19-2,17.92a131.4,131.4,0,0,0,20.69-7.66Zm-25.9,20.24s14.82,8.36,17.34,8.36c2.5.2-1.67,1.45-1.67,1.45l-8.16-5.22Zm54.28-24c4.39-.2,19.42,2.5,19.84,4.4s-8.36,9.18-12.53,11.25,9.81-7.29,8.36-10.23-10.65-5.42-15.67-5.42Zm-60.75,35.92c-3.34-1.87-.62,5.84-.62,5.84s3.09-2.7,4.17-3.12a16.35,16.35,0,0,0-3.55-2.72Zm29,24.43c-1.47-.23-3.15-1.27-6.27-3.14-2.72-1.88-6.68-6.69-10.45-11.49-4.17-5-8.34-10-11.46-11.65l0,0c-5.86-3.12-5,2.49-4.16,6-.82-.42-1.87-1-2.92-1.67a39,39,0,0,1-10-9c-3-3.72-5.1-8.85-8.76-11.88l-.22-.2c-2.55-1.67-3.43.14-1.65,2.27.2-1,.83-1,1.68-.4-3.07,0,3.34,16.84,6,15.22.63-.39.63-2.07,0-4.59a3,3,0,0,1-.39,2.52c-1.93,1-7.43-12.75-5-12.75,2.92,2.66,6,7.93,8.33,11.48,2.53,3.2,6.49,7.28,10,9.41a39.36,39.36,0,0,0,4.17,2.49l.62.43c-1.25,3.54-.4,8.36,2.29,12.53a15.62,15.62,0,0,0,2.53,3.12c5.84,6.06,14.2,7.73,18.56,3.57a3.89,3.89,0,0,0,1.68-2.53c2.09,1.25,3.54,2.1,5,2.3,4,.68,6.67-2.92,9.61-2.92,2.7,0,3.89-2.46,5.64-3.34,3.12-2.07,9.39-5,15.23-7.52,5.21-2.29,10-4.39,14.14-7.45a68.66,68.66,0,0,0,9.24-9.47l.63-.62c.85-.2,3.14-1.45,3.57-5.22a6.3,6.3,0,0,1,1.64-3.74c1.48-2.1,1.28-5.64,1.05-9.18l-1.25.19c.2,2.92-.19,6.07-1.44,7.74-1,1.45-2.1,2.7-2.3,4.79-.22,2.5-1.27,3.12-1.9,3.35l-.2.2-.62.42a81.91,81.91,0,0,1-6.89,7.51,31.8,31.8,0,0,1-4.39,3.55c-2.3,1.67-7.09,3.77-12.3,6.06-5.84,2.55-11.43,5-16.73,8.56-2.07,2.07-2.49,2.07-2.92,2.07-3.46,0-7.06,3.41-9.38,3Zm-28.21-8.56a17.69,17.69,0,0,0,4,5.84c5.45,5.64,13.58,7.31,17.55,3.35.42-.43.82-.63,1-1a9,9,0,0,1-1.87-1.05c-3.15-2.1-7.12-6.89-10.86-11.91-2.52-2.92-5-6-7.11-8.13a5.27,5.27,0,0,0-1.45,1c-3.23,3.2-3,7.93-1.28,11.9Zm28-1s27.78-13.58,31.52-14.82a20.29,20.29,0,0,1,4.82-1.25s-11.28,4.17-14.82,6.26c-3.55,1.88-21.52,9.81-21.52,9.81Zm15.05-19-4.39,1.67a5.32,5.32,0,0,0,4.39,3.77,2.92,2.92,0,0,0,1.25-.19c2.3-.66,3.55-3.15,2.92-5.87a1,1,0,0,0-.42-.82Zm-6.88,4.59a4.26,4.26,0,0,0-.85-1.64l-3.75,1.45-3.14,1c-.43.2-1.05.43-1.48.63,0,6.77,11,6.74,9.22-1.48Zm45.49-28.6c-1.05.85-2.18,1.82-3.23,2.67.09.14.14.25.31.48a4.08,4.08,0,0,0,2.92,1.87h0a3.67,3.67,0,0,0,1.14-.14,4.53,4.53,0,0,0,1-.48c2-1.42,1.56-4.28,0-5.84-.85.51-1.47,1-2.1,1.44Z" transform="translate(1017.24 -1004.17)"/></svg>