<svg version="1.2" xmlns="http://www.w3.org/2000/svg" viewBox="0 0 935 347" width="935" height="347">
	<style>
		.s0 { fill: #000000 } 
		.s1 { opacity: .6;fill: #000000 } 
	</style>
	<path class="s0" d="m68.61 318.85l-16.58-61.04h-0.21l-16.78 61.04h-10.07l-18.62-72.64h9.86l14.25 60.43h0.2l16.28-60.43h10.48l16.07 60.43h0.21l14.75-60.43h9.66l-19.43 72.64zm68.68-3.36q-5.91 4.48-14.86 4.48-6.3 0-10.93-2.04-4.63-2.03-7.79-5.69-3.15-3.67-4.73-8.75-1.57-5.09-1.78-11.09 0-6 1.83-10.99 1.84-4.99 5.14-8.65 0.82-0.91 1.72-1.72 0.91-0.82 1.9-1.54 0.99-0.72 2.04-1.33 1.06-0.61 2.18-1.11 4.52-2.03 9.91-2.03 7.02 0 11.65 2.9 4.63 2.9 7.43 7.38 2.8 4.47 3.87 9.76 1.07 5.3 0.86 10.07h-39.37q-0.1 3.46 0.81 6.57 0.22 0.75 0.52 1.48 0.29 0.73 0.67 1.42 0.37 0.69 0.81 1.34 0.44 0.65 0.95 1.25 2.03 2.39 5.19 3.82 3.16 1.42 7.43 1.42 5.49 0 9-2.54 3.51-2.55 4.63-7.74h8.55q-1.73 8.86-7.63 13.33zm-2.09-33.78q-0.27-0.66-0.61-1.29-0.34-0.63-0.73-1.22-0.4-0.6-0.85-1.15-0.46-0.56-0.96-1.07-0.5-0.5-1.05-0.95-0.55-0.45-1.14-0.85-0.59-0.39-1.21-0.73-0.63-0.34-1.28-0.62-2.7-1.17-5.95-1.17-3.36 0-6.05 1.17-0.66 0.28-1.28 0.62-0.62 0.34-1.2 0.75-0.59 0.4-1.12 0.86-0.54 0.46-1.03 0.97-0.49 0.52-0.93 1.08-0.43 0.55-0.82 1.15-0.38 0.59-0.71 1.22-0.33 0.63-0.6 1.28-1.12 2.7-1.32 5.75h30.22q-0.05-0.74-0.16-1.48-0.11-0.75-0.28-1.47-0.18-0.73-0.41-1.44-0.23-0.72-0.53-1.41zm79.21-6.3q-3.26-2.75-8.75-2.75-4.68 0-7.84 1.73-3.15 1.73-5.03 4.58-1.88 2.85-2.7 6.56-0.21 0.94-0.36 1.9-0.15 0.96-0.25 1.92-0.11 0.96-0.16 1.93-0.05 0.96-0.04 1.93 0 3.66 0.86 7.12 0.87 3.46 2.7 6.16 0.46 0.67 0.99 1.29 0.54 0.61 1.14 1.16 0.6 0.54 1.27 1.01 0.66 0.47 1.38 0.86 2.95 1.63 7.02 1.63 6.41 0 10.02-3.36 3.61-3.36 4.43-9.46h8.85q-1.43 9.77-7.28 15.06-5.85 5.29-15.92 5.29-6 0-10.63-1.93-4.63-1.94-7.73-5.5-3.11-3.56-4.68-8.49-1.58-4.94-1.58-10.84 0-5.9 1.53-11.04 1.52-5.13 4.63-8.95 3.1-3.81 7.78-6 4.68-2.19 10.89-2.19 4.47 0 8.39 1.07 3.91 1.07 6.92 3.3 3 2.24 4.93 5.65 1.93 3.41 2.44 8.09h-8.95q-1.02-4.99-4.27-7.73zm31.03-9.16v11.09h0.2q3.16-6.41 7.73-9.46 4.58-3.05 11.6-2.85v9.16q-5.19 0-8.85 1.42-3.67 1.42-5.9 4.17-2.24 2.75-3.26 6.66-1.01 3.92-1.01 9.01v23.4h-8.65v-52.6zm61.45 49.24q-5.9 4.48-14.86 4.48-6.3 0-10.93-2.04-4.63-2.03-7.79-5.69-3.15-3.67-4.73-8.75-1.57-5.09-1.78-11.09 0-6 1.83-10.99 1.84-4.99 5.14-8.65 0.82-0.91 1.73-1.72 0.9-0.82 1.89-1.54 0.99-0.72 2.04-1.33 1.06-0.61 2.18-1.11 4.52-2.03 9.92-2.03 7.02 0 11.65 2.9 4.62 2.9 7.42 7.38 2.8 4.47 3.87 9.76 1.07 5.3 0.86 10.07h-39.37q-0.1 3.46 0.81 6.57 0.22 0.75 0.52 1.48 0.29 0.73 0.67 1.42 0.37 0.69 0.81 1.34 0.45 0.65 0.95 1.25 2.04 2.39 5.19 3.82 3.16 1.42 7.43 1.42 5.49 0 9-2.54 3.51-2.55 4.63-7.74h8.55q-1.73 8.86-7.63 13.33zm-2.09-33.78q-0.27-0.66-0.61-1.29-0.34-0.63-0.74-1.22-0.39-0.6-0.85-1.15-0.45-0.56-0.95-1.07-0.51-0.5-1.05-0.95-0.55-0.45-1.14-0.85-0.59-0.39-1.21-0.73-0.63-0.34-1.28-0.62-2.7-1.17-5.95-1.17-3.36 0-6.06 1.17-0.65 0.28-1.27 0.62-0.62 0.34-1.2 0.75-0.59 0.4-1.13 0.86-0.54 0.46-1.03 0.97-0.48 0.52-0.92 1.08-0.44 0.55-0.82 1.15-0.38 0.59-0.71 1.22-0.33 0.63-0.6 1.28-1.12 2.7-1.32 5.75h30.22q-0.05-0.74-0.16-1.48-0.11-0.75-0.29-1.47-0.17-0.73-0.4-1.44-0.24-0.72-0.53-1.41zm66.08 36.94q-2.24 1.32-6.21 1.32-3.35 0-5.34-1.88-1.98-1.89-1.98-6.16-3.56 4.27-8.29 6.16-4.73 1.88-10.23 1.88-0.85 0-1.71-0.05-0.85-0.05-1.7-0.15-0.84-0.1-1.68-0.25-0.84-0.16-1.67-0.36-3.21-0.82-5.55-2.55-2.34-1.73-3.71-4.53-1.38-2.79-1.38-6.76 0-4.48 1.53-7.33 1.52-2.85 4.02-4.63 2.49-1.77 5.7-2.69 3.2-0.92 6.56-1.53 0.84-0.17 1.68-0.32 0.84-0.15 1.69-0.28 0.85-0.14 1.69-0.25 0.85-0.12 1.7-0.22 3.21-0.35 5.65-1.01 2.44-0.67 3.87-1.94 1.42-1.27 1.42-3.71 0-2.85-1.07-4.58-0.24-0.41-0.55-0.79-0.3-0.38-0.64-0.71-0.35-0.34-0.74-0.62-0.39-0.29-0.81-0.52-0.44-0.24-0.9-0.43-0.46-0.2-0.93-0.35-0.47-0.16-0.96-0.27-0.48-0.11-0.98-0.17-0.51-0.08-1.02-0.14-0.52-0.05-1.03-0.09-0.52-0.04-1.04-0.06-0.51-0.02-1.03-0.02-5.49 0-9.16 2.08-3.66 2.09-3.96 7.89h-8.65q0.2-4.88 2.03-8.24 1.84-3.36 4.89-5.44 3.05-2.09 6.97-3 3.91-0.92 8.39-0.92 3.56 0 7.07 0.51 3.51 0.51 6.36 2.08 0.71 0.39 1.35 0.87 0.65 0.47 1.23 1.03 0.58 0.56 1.08 1.19 0.5 0.63 0.92 1.33 1.73 2.83 1.73 7.4v27.01q0 3.05 0.35 4.47 0.36 1.42 2.4 1.42 1.11 0 2.64-0.41zm-14.04-26.96q-1.63 1.22-4.27 1.77-0.69 0.15-1.38 0.27-0.69 0.13-1.39 0.25-0.69 0.11-1.38 0.21-0.7 0.1-1.4 0.18-0.73 0.09-1.46 0.19-0.74 0.09-1.47 0.19-0.73 0.11-1.46 0.21-0.73 0.11-1.46 0.22-2.95 0.46-5.29 1.47-2.34 1.01-3.81 2.88-1.48 1.88-1.48 5.12 0 2.12 0.87 3.59 0.2 0.36 0.45 0.69 0.24 0.33 0.53 0.63 0.28 0.3 0.6 0.57 0.31 0.26 0.65 0.49 1.38 0.91 3.21 1.32 1.83 0.4 3.86 0.4 4.28 0 7.33-1.16 3.05-1.17 4.99-2.94 1.93-1.77 2.84-3.85 0.92-2.07 0.92-3.89zm44.56-25.44v7.63h-10.48v32.66q0 1.53 0.26 2.44 0.05 0.22 0.14 0.42 0.09 0.2 0.21 0.38 0.13 0.18 0.28 0.34 0.15 0.16 0.33 0.29 0.71 0.51 1.99 0.66 1.27 0.15 3.3 0.15h3.97v7.63h-6.61q-3.36 0-5.75-0.46-2.39-0.45-3.87-1.68-1.47-1.22-2.18-3.45-0.72-2.24-0.72-5.91v-33.47h-8.95v-7.63h8.95v-15.77h8.65v15.77zm46.8 49.24q-5.91 4.48-14.85 4.48-6.31 0-10.94-2.03-4.63-2.04-7.78-5.7-3.16-3.66-4.74-8.75-1.57-5.09-1.78-11.09 0-6 1.84-10.99 1.83-4.98 5.13-8.65 0.82-0.9 1.73-1.72 0.9-0.82 1.89-1.54 0.99-0.72 2.05-1.33 1.05-0.61 2.17-1.1 4.52-2.04 9.92-2.04 7.02 0 11.65 2.9 4.63 2.9 7.42 7.38 0.7 1.12 1.3 2.3 0.59 1.18 1.08 2.4 0.48 1.23 0.86 2.5 0.37 1.27 0.63 2.56 1.07 5.3 0.87 10.08h-39.38q-0.1 3.46 0.82 6.56 0.21 0.75 0.51 1.48 0.3 0.73 0.67 1.42 0.37 0.69 0.81 1.34 0.45 0.65 0.96 1.25 2.03 2.39 5.18 3.82 3.16 1.42 7.43 1.42 5.5 0 9.01-2.54 3.51-2.55 4.63-7.73h8.54q-1.73 8.85-7.63 13.32zm-2.09-33.77q-0.27-0.66-0.61-1.3-0.34-0.63-0.73-1.22-0.4-0.6-0.85-1.15-0.45-0.56-0.96-1.07-0.5-0.5-1.05-0.95-0.55-0.45-1.14-0.84-0.59-0.4-1.21-0.74-0.62-0.34-1.28-0.62-2.69-1.17-5.95-1.17-3.36 0-6.05 1.17-0.66 0.28-1.28 0.62-0.62 0.34-1.2 0.75-0.58 0.4-1.12 0.86-0.54 0.46-1.03 0.98-0.49 0.51-0.93 1.07-0.43 0.56-0.82 1.15-0.38 0.6-0.71 1.22-0.33 0.63-0.59 1.29-0.29 0.68-0.51 1.39-0.23 0.7-0.39 1.43-0.17 0.72-0.28 1.45-0.1 0.73-0.15 1.47h30.22q-0.05-0.74-0.16-1.48-0.11-0.74-0.29-1.47-0.17-0.73-0.4-1.44-0.23-0.71-0.53-1.4zm79.21-6.31q-3.26-2.75-8.75-2.75-4.68 0-7.83 1.73-3.16 1.73-5.04 4.58-1.89 2.85-2.7 6.56-0.2 0.95-0.36 1.9-0.15 0.96-0.25 1.92-0.1 0.96-0.15 1.93-0.05 0.96-0.05 1.93 0 3.67 0.86 7.12 0.86 3.46 2.7 6.16 0.46 0.67 0.99 1.29 0.54 0.61 1.14 1.16 0.61 0.54 1.27 1.02 0.67 0.47 1.38 0.85 2.95 1.63 7.02 1.63 6.41 0 10.02-3.36 3.61-3.35 4.43-9.46h8.85q-1.43 9.77-7.27 15.06-5.86 5.29-15.93 5.29-6 0-10.63-1.93-4.63-1.93-7.73-5.5-3.11-3.56-4.68-8.49-1.58-4.94-1.58-10.84 0-5.9 1.52-11.04 1.53-5.13 4.64-8.95 3.1-3.81 7.78-6 4.68-2.19 10.89-2.19 4.47 0 8.39 1.07 3.92 1.07 6.92 3.31 2.99 2.23 4.93 5.64 1.93 3.41 2.44 8.09h-8.95q-1.02-4.99-4.27-7.73zm31.84-29.2v27.77h0.2q1.02-2.44 2.85-4.12 0.46-0.42 0.95-0.8 0.49-0.38 1.01-0.73 0.52-0.34 1.06-0.65 0.54-0.3 1.11-0.56 2.28-1.07 4.77-1.58 0.6-0.13 1.2-0.22 0.6-0.09 1.21-0.16 0.61-0.06 1.21-0.09 0.61-0.04 1.22-0.04 5.18 0 8.64 1.43 3.47 1.42 5.6 3.96 2.13 2.55 3 6.06 0.86 3.51 0.87 7.78v34.59h-8.65v-35.61q0-4.88-2.85-7.73-2.85-2.85-7.83-2.85-3.97 0-6.87 1.22-2.9 1.22-4.83 3.46-1.94 2.24-2.9 5.24-0.97 3-0.97 6.56v29.71h-8.65v-72.64zm85.16 69.29q-5.91 4.47-14.85 4.47-6.31 0-10.94-2.03-4.63-2.04-7.79-5.7-3.15-3.66-4.73-8.75-1.57-5.09-1.78-11.09 0-6 1.83-10.99 1.84-4.98 5.14-8.65 0.81-0.9 1.72-1.72 0.91-0.82 1.9-1.54 0.98-0.71 2.04-1.33 1.06-0.61 2.17-1.1 4.53-2.03 9.92-2.04 7.02 0 11.65 2.9 4.63 2.9 7.43 7.38 2.79 4.48 3.86 9.76 1.07 5.3 0.87 10.08h-39.37q-0.11 3.46 0.81 6.56 0.22 0.76 0.51 1.48 0.3 0.73 0.67 1.42 0.37 0.7 0.82 1.35 0.44 0.64 0.95 1.24 2.03 2.39 5.19 3.82 3.15 1.42 7.43 1.42 5.49 0 9-2.54 3.51-2.54 4.63-7.73h8.54q-1.72 8.85-7.62 13.33zm-2.09-33.78q-0.27-0.66-0.61-1.29-0.34-0.64-0.74-1.23-0.39-0.6-0.84-1.15-0.46-0.56-0.96-1.06-0.5-0.5-1.05-0.95-0.55-0.46-1.14-0.85-0.59-0.4-1.21-0.74-0.63-0.34-1.28-0.62-2.7-1.17-5.95-1.17-3.36 0-6.05 1.17-0.66 0.28-1.28 0.62-0.62 0.34-1.2 0.75-0.59 0.4-1.13 0.86-0.54 0.46-1.03 0.98-0.48 0.51-0.92 1.07-0.44 0.56-0.82 1.15-0.39 0.6-0.71 1.22-0.33 0.63-0.6 1.29-1.12 2.7-1.32 5.75h30.22q-0.05-0.75-0.16-1.49-0.11-0.74-0.29-1.47-0.17-0.73-0.4-1.44-0.24-0.71-0.53-1.4zm27.62-15.47v7.73h0.21q5.9-8.95 16.99-8.95 4.88 0 8.85 2.04 3.97 2.03 5.59 6.91 2.65-4.27 6.97-6.61 4.33-2.34 9.51-2.34 3.98 0 7.18 0.87 3.2 0.86 5.49 2.69 2.29 1.83 3.56 4.73 1.27 2.9 1.27 6.97v38.56h-8.64v-34.49q0-2.44-0.41-4.58-0.41-2.13-1.53-3.71-1.12-1.58-3.1-2.49-1.99-0.92-5.14-0.92-6.41 0-10.07 3.66-3.66 3.67-3.67 9.77v32.76h-8.64v-34.49q0-2.54-0.46-4.68-0.46-2.13-1.58-3.71-1.12-1.58-3-2.44-1.88-0.87-4.83-0.87-3.77 0-6.46 1.53-2.7 1.53-4.38 3.66-1.67 2.14-2.44 4.43-0.76 2.29-0.76 3.81v32.76h-8.65v-52.6zm79.15-9.46v-10.58h8.65v10.58zm8.65 9.46v52.6h-8.65v-52.6zm20.04 40.85q0.3 0.48 0.65 0.93 0.35 0.45 0.76 0.84 0.4 0.4 0.85 0.75 0.46 0.34 0.95 0.63 0.52 0.3 1.06 0.56 0.54 0.26 1.1 0.47 0.57 0.21 1.14 0.37 0.58 0.17 1.17 0.28 0.64 0.13 1.28 0.23 0.63 0.09 1.28 0.16 0.64 0.06 1.29 0.09 0.64 0.03 1.29 0.03 2.03 0 4.27-0.3 0.53-0.07 1.06-0.18 0.53-0.1 1.04-0.24 0.52-0.14 1.03-0.32 0.5-0.18 1-0.38 0.45-0.2 0.88-0.45 0.43-0.25 0.82-0.55 0.39-0.3 0.75-0.65 0.35-0.35 0.65-0.75 1.22-1.57 1.22-4.01 0-3.36-2.54-5.09-2.54-1.73-6.36-2.8-1.03-0.28-2.06-0.55-1.03-0.26-2.07-0.5-1.03-0.24-2.08-0.46-1.04-0.22-2.08-0.42-4.48-0.87-8.3-2.44-3.81-1.58-6.35-4.43-2.55-2.85-2.55-7.94 0-3.96 1.79-6.81 0.43-0.7 0.94-1.35 0.5-0.64 1.08-1.23 0.58-0.58 1.22-1.09 0.64-0.52 1.33-0.96 2.8-1.78 6.31-2.65 0.85-0.21 1.72-0.37 0.86-0.16 1.74-0.27 0.87-0.11 1.75-0.16 0.88-0.06 1.76-0.06 4.47 0 8.24 0.76 3.76 0.76 6.66 2.65 2.9 1.88 4.63 5.08 1.73 3.21 2.04 7.99h-8.65q-0.21-2.54-1.32-4.22-0.28-0.41-0.6-0.79-0.31-0.38-0.67-0.72-0.36-0.34-0.76-0.64-0.4-0.3-0.82-0.55-0.45-0.26-0.91-0.48-0.46-0.22-0.94-0.41-0.48-0.18-0.98-0.33-0.49-0.14-0.99-0.25-0.52-0.12-1.04-0.2-0.53-0.09-1.06-0.15-0.53-0.05-1.06-0.08-0.53-0.03-1.06-0.03-0.49 0-0.99 0.02-0.49 0.02-0.98 0.06-0.49 0.04-0.97 0.09-0.49 0.06-0.98 0.14-0.47 0.06-0.93 0.16-0.46 0.1-0.91 0.24-0.46 0.13-0.9 0.3-0.44 0.16-0.87 0.36-1.63 0.77-2.65 2.04-1.02 1.27-1.01 3.3-0.01 2.24 1.58 3.72 1.57 1.47 4.01 2.44 2.45 0.97 5.5 1.63 3.05 0.66 6.1 1.37 3.26 0.72 6.36 1.73 3.1 1.02 5.49 2.7 0.59 0.41 1.14 0.89 0.54 0.47 1.03 1.01 0.48 0.53 0.91 1.11 0.43 0.58 0.79 1.21 1.47 2.54 1.47 6.31 0 4.78-1.98 7.93-0.49 0.78-1.06 1.5-0.58 0.71-1.23 1.36-0.66 0.64-1.39 1.2-0.72 0.56-1.51 1.03-3.21 1.93-7.23 2.7-0.98 0.18-1.98 0.33-0.99 0.14-1.99 0.23-1 0.1-2 0.15-1.01 0.05-2.01 0.05-4.38 0-8.34-0.92-3.97-0.91-7.02-3-3.06-2.08-4.89-5.49-1.83-3.41-2.03-8.29h8.65q0.1 2.85 1.32 4.83zm66.74-40.85v7.63h-10.48v32.66q0 1.53 0.26 2.44 0.05 0.22 0.14 0.42 0.09 0.2 0.22 0.38 0.12 0.18 0.27 0.34 0.16 0.16 0.34 0.29 0.71 0.51 1.98 0.66 1.27 0.15 3.3 0.15h3.97v7.63h-6.61q-3.36 0-5.75-0.45-2.39-0.46-3.87-1.68-1.47-1.22-2.18-3.46-0.71-2.24-0.71-5.9v-33.48h-8.96v-7.63h8.96v-15.77h8.65v15.77zm17.39 0v11.09h0.2q3.16-6.41 7.73-9.46 4.58-3.05 11.6-2.85v9.16q-5.19 0-8.85 1.42-3.66 1.43-5.9 4.17-2.24 2.75-3.26 6.67-1.01 3.91-1.01 9v23.4h-8.65v-52.6zm46.7 59.62q-1.53 3.87-3.01 6.51-1.47 2.65-3.25 4.33-0.42 0.4-0.89 0.76-0.46 0.36-0.96 0.67-0.5 0.31-1.03 0.56-0.53 0.25-1.09 0.45-2.18 0.76-5.03 0.76-0.38 0-0.77-0.01-0.38-0.01-0.76-0.04-0.38-0.02-0.76-0.06-0.38-0.04-0.76-0.09-0.38-0.05-0.75-0.12-0.38-0.07-0.75-0.16-0.37-0.09-0.73-0.2-0.37-0.11-0.72-0.23v-7.94q0.31 0.14 0.63 0.26 0.32 0.13 0.64 0.24 0.33 0.1 0.66 0.2 0.33 0.09 0.66 0.17 1.48 0.35 2.49 0.35 2.65 0 4.43-1.27 1.78-1.27 2.69-3.61l3.57-8.85-20.86-52.3h9.77l15.36 43.04h0.2l14.75-43.04h9.16z"/>
	<path class="s0" d="m337.05 11.7h92.03c33.78 0 49.21 22.52 49.21 43.11 0 14.83-5.7 24.4-20.99 33.3 19.29 7.13 29.78 20 29.78 39.84 0 23.73-17.24 48.92-57.88 48.92h-92.2zm50.26 127.87h33.31c11.86 0 17.19-8.48 17.19-15.98 0 3.47 1.53-13.69-15.51-13.69h-34.99zm0.12-62.84h26.76c12.24 0 17.11-5.7 17.11-14.05 0-1.94-0.6-12.72-13.59-12.72h-30.28zm152-65.03h53.21l60.61 164.98h-54.62l-7.99-24.71h-50.99l-6.78 24.58h-54.2zm24.44 48.96l-14.05 55.1h30.03zm174.26 0.11h50.74c0-28.01-21.07-54.01-71.09-54.01-54.85 0-71.84 30.27-71.84 52.43 0 35.74 43.73 45.23 45.08 45.65 6.53 2.06 33.67 9.33 40.44 11.75 5.87 2.1 11.49 6.8 11.49 13.08 0 9.64-11.49 14.28-21.05 14.28-6.13 0-26.78-2.04-26.78-23.91h-52.42c0 29.05 19.99 61.57 76.05 61.57 61.88 0 74.82-36.92 74.82-56.54 0-16.02-9.07-33.79-30.02-42.24-12.59-5.09-33.47-9.55-43.96-12.61-5.29-1.55-22.9-5.12-22.9-15.86 0-13.78 22.7-12 19.39-12 10.27 0 22.05 5.77 22.05 18.41zm114.68-5.51v29.06h67.8v41.66h-68.04v50.86h-50.61l0.24-165.17h126.65v43.59z"/>
	<path class="s1" d="m6.68 11.7v165.19h165.19v-165.19zm114.35 114.36h-63.53v-63.54h63.54zm101.65-63.54h63.53v63.54h-63.53z"/>
</svg>